<svg width="24" height="24" viewBox="0 0 24 24" fill="none" xmlns="http://www.w3.org/2000/svg">
    <path fill-rule="evenodd" clip-rule="evenodd"
        d="M2 5.25C2 4.69772 2.44772 4.25 3 4.25H21C21.5523 4.25 22 4.69772 22 5.25V18.75C22 19.3023 21.5523 19.75 21 19.75H3C2.44772 19.75 2 19.3023 2 18.75V5.25ZM4 6.25V17.75H20V6.25H4Z"
        fill="#40BFFF" />
    <path fill-rule="evenodd" clip-rule="evenodd"
        d="M2.24075 4.59923C2.60017 4.17991 3.23147 4.13134 3.6508 4.49075L12 11.6471L20.3492 4.49075C20.7686 4.13134 21.3999 4.17991 21.7593 4.59923C22.1187 5.01856 22.0701 5.64986 21.6508 6.00928L12.6508 13.7234C12.2763 14.0444 11.7237 14.0444 11.3492 13.7234L2.34923 6.00928C1.92991 5.64986 1.88134 5.01856 2.24075 4.59923Z"
        fill="#40BFFF" />
</svg>
