<svg width="24" height="25" viewBox="0 0 24 25" fill="none" xmlns="http://www.w3.org/2000/svg">
    <g id="Other Icon/Google">
        <g id="Group 121">
            <path id="Vector"
                d="M19.8445 10.9332H19.2001V10.9H12V14.1H16.5213C15.8617 15.9628 14.0892 17.3001 12 17.3001C9.34922 17.3001 7.20001 15.1508 7.20001 12.5C7.20001 9.84922 9.34922 7.70001 12 7.70001C13.2236 7.70001 14.3368 8.16162 15.1844 8.91562L17.4473 6.65281C16.0185 5.3212 14.1072 4.5 12 4.5C7.58202 4.5 4 8.08202 4 12.5C4 16.9181 7.58202 20.5001 12 20.5001C16.4181 20.5001 20.0001 16.9181 20.0001 12.5C20.0001 11.9636 19.9449 11.44 19.8445 10.9332Z"
                fill="#FFC107" />
            <path id="Vector_2"
                d="M4.92188 8.77642L7.55029 10.704C8.26149 8.94322 9.9839 7.70001 11.9995 7.70001C13.2231 7.70001 14.3363 8.16162 15.1839 8.91562L17.4467 6.65281C16.0179 5.3212 14.1067 4.5 11.9995 4.5C8.92669 4.5 6.26188 6.23481 4.92188 8.77642Z"
                fill="#FF3D00" />
            <path id="Vector_3"
                d="M12 20.5003C14.0664 20.5003 15.944 19.7095 17.3636 18.4235L14.8876 16.3283C14.0844 16.9367 13.086 17.3003 12 17.3003C9.91915 17.3003 8.15234 15.9735 7.48674 14.1219L4.87793 16.1319C6.20194 18.7227 8.89075 20.5003 12 20.5003Z"
                fill="#4CAF50" />
            <path id="Vector_4"
                d="M19.8444 10.9332H19.2V10.9H12V14.1H16.5212C16.2044 14.9948 15.6288 15.7664 14.8864 16.3284C14.8868 16.328 14.8872 16.328 14.8876 16.3276L17.3636 18.4229C17.1884 18.5821 20 16.5 20 12.5C20 11.9636 19.9448 11.44 19.8444 10.9332Z"
                fill="#1976D2" />
        </g>
    </g>
</svg>
